<?xml version="1.0" encoding="UTF-8" standalone="no"?>
<!-- Created with Inkscape (http://www.inkscape.org/) -->
<svg
   xmlns:svg="http://www.w3.org/2000/svg"
   xmlns="http://www.w3.org/2000/svg"
   version="1.0"
   width="1024"
   height="1024"
   id="svg2444">
  <defs
     id="defs2446" />
  <g
     id="layer1">
    <g
       id="g3257">
      <path
         d="M 179.92864,32.000013 L 844.07135,32.000013 C 925.76732,32.000013 991.99999,98.230361 991.99999,179.92865 L 991.99999,844.07135 C 991.99999,925.76732 925.76732,991.99998 844.07135,991.99998 L 179.92864,991.99998 C 98.230355,991.99998 32.000006,925.76732 32.000006,844.07135 L 32.000006,179.92865 C 32.000006,98.230361 98.230355,32.000013 179.92864,32.000013"
         id="path2438"
         style="fill:#4c75a3;fill-opacity:1;fill-rule:evenodd;stroke:none" />
      <path
         d="M 503.94561,704.02937 L 543.21464,704.02937 C 543.21464,704.02937 555.07355,702.72226 561.13718,696.19824 C 566.71036,690.20169 566.53222,678.94892 566.53222,678.94892 C 566.53222,678.94892 565.76414,626.25707 590.21533,618.49765 C 614.32875,610.84928 645.28544,669.422 678.09524,691.94606 C 702.90734,708.98485 721.76221,705.25552 721.76221,705.25552 L 809.501,704.02937 C 809.501,704.02937 855.39584,701.19767 833.63292,665.11199 C 831.85154,662.16461 820.95504,638.41904 768.39506,589.63234 C 713.37584,538.56917 720.75122,546.83061 787.0209,458.5042 C 827.37958,404.71345 843.51149,371.87589 838.47041,357.81224 C 833.66762,344.41255 803.98103,347.95218 803.98103,347.95218 L 705.19537,348.56294 C 705.19537,348.56294 697.86626,347.56583 692.43883,350.81395 C 687.12938,353.99036 683.72163,361.41201 683.72163,361.41201 C 683.72163,361.41201 668.08018,403.03386 647.23571,438.43707 C 603.24717,513.13013 585.65546,517.08387 578.46516,512.4384 C 561.73637,501.6275 565.91683,469.01666 565.91683,445.84252 C 565.91683,373.45368 576.89662,343.272 544.53564,335.45938 C 533.79877,332.86828 525.88898,331.15399 498.42564,330.87406 C 463.17512,330.51547 433.3474,330.98279 416.45436,339.25811 C 405.21547,344.76189 396.54454,357.02334 401.82853,357.72895 C 408.35949,358.59882 423.14264,361.71971 430.98071,372.38486 C 441.10682,386.16164 440.75286,417.08826 440.75286,417.08826 C 440.75286,417.08826 446.57126,502.30072 427.16809,512.88259 C 413.85401,520.14229 395.58676,505.32213 356.36862,437.55563 C 336.27835,402.84415 321.10422,364.47044 321.10422,364.47044 C 321.10422,364.47044 318.18229,357.30096 312.96308,353.46289 C 306.6334,348.81279 297.78896,347.33911 297.78896,347.33911 L 203.91254,347.95218 C 203.91254,347.95218 189.8234,348.34547 184.64583,354.47388 C 180.03969,359.92907 184.27802,371.19804 184.27802,371.19804 C 184.27802,371.19804 257.76808,543.14061 340.9886,629.78975 C 417.30341,709.24396 503.94561,704.02937 503.94561,704.02937"
         id="path2442"
         style="fill:#ffffff;fill-opacity:1;fill-rule:evenodd;stroke:none" />
    </g>
  </g>


  <rect height="50" id="Artboard10" style="fill:none;" width="50" x="0" y="0"/><path d="M24 48C37.2548 48 48 37.2548 48 24C48 10.7452 37.2548 0 24 0C10.7452 0 0 10.7452 0 24C0 37.2548 10.7452 48 24 48Z" fill="url(#paint0_linear)"/>
<path d="M8.93822 25.174C11.7438 23.6286 14.8756 22.3388 17.8018 21.0424C22.836 18.919 27.8902 16.8324 32.9954 14.8898C33.9887 14.5588 35.7734 14.2351 35.9484 15.7071C35.8526 17.7907 35.4584 19.8621 35.188 21.9335C34.5017 26.4887 33.7085 31.0283 32.935 35.5685C32.6685 37.0808 30.774 37.8637 29.5618 36.8959C26.6486 34.9281 23.713 32.9795 20.837 30.9661C19.8949 30.0088 20.7685 28.6341 21.6099 27.9505C24.0093 25.5859 26.5539 23.5769 28.8279 21.0901C29.4413 19.6088 27.6289 20.8572 27.0311 21.2397C23.7463 23.5033 20.5419 25.9051 17.0787 27.8945C15.3097 28.8683 13.2479 28.0361 11.4797 27.4927C9.89428 26.8363 7.57106 26.175 8.93806 25.1741L8.93822 25.174Z" fill="white"/>
<defs>
<linearGradient id="paint0_linear" x1="18.0028" y1="2.0016" x2="6.0028" y2="30" gradientUnits="userSpaceOnUse">
<stop stop-color="#37AEE2"/>
<stop offset="1" stop-color="#1E96C8"/>
</linearGradient>
</defs>


<rect height="50" id="Artboard10" style="fill:none;" width="50" x="0" y="0"/><path d="M22,7c0,-2.761 -2.239,-5 -5,-5c-3.054,0 -6.946,0 -10,0c-2.761,0 -5,2.239 -5,5c0,3.054 0,6.946 0,10c0,2.761 2.239,5 5,5c3.054,0 6.946,0 10,0c2.761,0 5,-2.239 5,-5c0,-3.054 0,-6.946 0,-10Z" style="fill:url(#_Radial1);"/><path d="M14.958,5.005c2.091,0.02 4.016,1.815 4.037,4.037c0.007,1.972 0.007,3.944 0,5.916c-0.02,2.083 -1.815,4.016 -4.037,4.037c-1.972,0.007 -3.944,0.007 -5.916,0c-2.092,-0.02 -4.016,-1.815 -4.037,-4.037c-0.007,-1.972 -0.007,-3.944 0,-5.916c0.019,-2.093 1.81,-4.016 4.037,-4.037c1.972,-0.007 3.944,-0.007 5.916,0Zm-5.889,0.945c-1.623,0.005 -3.103,1.412 -3.119,3.098c-0.006,1.968 -0.006,3.936 0,5.904c0.015,1.605 1.388,3.082 3.098,3.098c1.968,0.006 3.936,0.006 5.904,0c1.609,-0.015 3.082,-1.388 3.098,-3.098c0.006,-1.968 0.006,-3.936 0,-5.904c-0.015,-1.616 -1.415,-3.082 -3.098,-3.098c-1.961,-0.006 -3.922,0 -5.883,0Z" style="fill:#fff;fill-rule:nonzero;"/><path d="M12.024,8.5c1.618,0.015 3.126,1.263 3.422,2.862c0.211,1.14 -0.187,2.376 -1.027,3.178c-0.935,0.89 -2.382,1.208 -3.622,0.754c-1.386,-0.507 -2.361,-1.968 -2.296,-3.448c0.079,-1.768 1.641,-3.34 3.499,-3.346c0.008,0 0.016,0 0.024,0Zm-0.04,0.947c-1.155,0.011 -2.244,0.887 -2.484,2.025c-0.243,1.151 0.419,2.428 1.506,2.887c1.187,0.502 2.72,-0.061 3.293,-1.233c0.593,-1.211 0.034,-2.856 -1.218,-3.441c-0.341,-0.159 -0.72,-0.239 -1.097,-0.238Z" style="fill:#fff;fill-rule:nonzero;"/><path d="M16.5,8.227c0,-0.193 -0.077,-0.378 -0.213,-0.514c-0.136,-0.136 -0.321,-0.213 -0.514,-0.213c-0.015,0 -0.031,0 -0.046,0c-0.193,0 -0.378,0.077 -0.514,0.213c-0.136,0.136 -0.213,0.321 -0.213,0.514c0,0.008 0,0.015 0,0.023c0,0.199 0.079,0.39 0.22,0.53c0.14,0.141 0.331,0.22 0.53,0.22c0,0 0,0 0,0c0.414,0 0.75,-0.336 0.75,-0.75c0,-0.008 0,-0.015 0,-0.023Z" style="fill:#fff;"/><defs><radialGradient cx="0" cy="0" gradientTransform="matrix(27.933,0,0,27.933,2,21.5)" gradientUnits="userSpaceOnUse" id="_Radial1" r="1"><stop offset="0" style="stop-color:#ff8100;stop-opacity:1"/><stop offset="0.19" style="stop-color:#ff7209;stop-opacity:1"/><stop offset="0.32" style="stop-color:#f55e16;stop-opacity:1"/><stop offset="0.48" style="stop-color:#d92938;stop-opacity:1"/><stop offset="1" style="stop-color:#9100ff;stop-opacity:1"/></radialGradient></defs>
</svg>
