<svg xmlns="http://www.w3.org/2000/svg">

<symbol id='burger_menu' viewBox='0 0 21 23'>
<line x1="21" y1="1" y2="1" stroke="#FFFCFC" stroke-width="2"/>
<line x1="21" y1="11" y2="11" stroke="#FFFCFC" stroke-width="2"/>
<line x1="21" y1="22" y2="22" stroke="#FFFCFC" stroke-width="2"/>
</symbol>
<symbol id='burger_menu_black' viewBox='0 0 21 23'>
<line x1="21" y1="1" y2="1" stroke="#292929" stroke-width="2"/>
<line x1="21" y1="11" y2="11" stroke="#292929" stroke-width="2"/>
<line x1="21" y1="22" y2="22" stroke="#292929" stroke-width="2"/>
</symbol>
<symbol id='telegram' viewBox='0 0 96 96'>
<g><circle cx="50" cy="50" fill="#139BD0" r="45"/><path clip-rule="evenodd" d="M51.474,60.754c-1.733,1.688-3.451,3.348-5.153,5.021   c-0.595,0.586-1.264,0.91-2.118,0.865c-0.583-0.031-0.909-0.287-1.088-0.84c-1.304-4.047-2.627-8.084-3.924-12.135   c-0.126-0.393-0.312-0.584-0.71-0.707c-3.072-0.938-6.138-1.898-9.199-2.871c-0.471-0.15-0.946-0.346-1.353-0.623   c-0.629-0.426-0.721-1.121-0.157-1.621c0.521-0.461,1.143-0.863,1.789-1.119c3.755-1.488,7.53-2.928,11.299-4.381   c9.565-3.693,19.13-7.383,28.696-11.076c1.819-0.703,3.217,0.287,3.028,2.254c-0.121,1.258-0.447,2.496-0.71,3.738   c-2.077,9.807-4.156,19.615-6.244,29.42c-0.496,2.328-2.131,2.936-4.047,1.523c-3.209-2.365-6.415-4.738-9.622-7.107   C51.808,60.984,51.649,60.877,51.474,60.754z M44.271,63.732c0.036-0.01,0.072-0.02,0.108-0.029   c0.02-0.092,0.049-0.182,0.057-0.273c0.206-2.223,0.424-4.445,0.603-6.672c0.04-0.496,0.21-0.848,0.583-1.182   c2.958-2.645,5.898-5.307,8.844-7.963c3.261-2.941,6.523-5.879,9.772-8.832c0.201-0.182,0.285-0.492,0.423-0.744   c-0.306-0.033-0.634-0.156-0.912-0.084c-0.379,0.098-0.738,0.318-1.076,0.531c-7.197,4.533-14.388,9.074-21.59,13.598   c-0.407,0.256-0.483,0.473-0.328,0.92c0.531,1.525,1.014,3.064,1.515,4.6C42.937,59.646,43.604,61.689,44.271,63.732z" fill="#FFFFFF" fill-rule="evenodd"/></g>
</symbol>
<symbol id='vk' viewBox='0 0 98 98'>
<circle cx="50" cy="50" fill="#FFFFFF" r="45"/>
<path d="M50,3.84C24.506,3.84,3.84,24.506,3.84,50S24.506,96.16,50,96.16S96.16,75.494,96.16,50S75.494,3.84,50,3.84  z M74.808,67.517c-1.97,1.232-9.975,1.599-11.913,0.191c-1.063-0.772-2.035-1.738-2.958-2.658c-0.646-0.643-1.379-0.955-1.934-1.653  c-0.453-0.571-0.764-1.245-1.241-1.809c-0.805-0.946-2.044-1.751-3.024-0.595c-1.476,1.739,0.232,5.154-1.736,6.453  c-0.66,0.436-1.326,0.562-2.151,0.5l-1.827,0.083c-1.073,0.021-2.773,0.031-3.994-0.189c-1.362-0.246-2.487-0.99-3.719-1.536  c-2.338-1.037-4.565-2.45-6.26-4.407c-4.613-5.33-10.809-12.66-13.216-19.361c-0.495-1.377-1.803-4.104-0.563-5.285  c1.686-1.225,9.961-1.57,11.252,0.324c0.524,0.77,0.855,1.896,1.226,2.769c0.462,1.088,0.712,2.113,1.434,3.076  c0.639,0.854,1.11,1.713,1.604,2.649c0.555,1.051,1.079,2.059,1.754,3.026c0.458,0.658,1.669,1.967,2.434,2.064  c1.868,0.239,1.752-4.3,1.613-5.408c-0.133-1.068-0.167-2.201-0.132-3.284c0.03-0.924,0.113-2.226-0.434-2.98  c-0.892-1.23-2.879-0.31-3.034-1.963c0.328-0.469,0.259-0.885,2.45-1.607c1.726-0.567,2.841-0.549,3.979-0.458  c2.32,0.186,4.78-0.442,7.02,0.31c2.14,0.721,1.809,3.762,1.737,5.584c-0.097,2.487,0.007,4.915,0,7.44  c-0.003,1.149-0.049,2.268,1.353,2.174c1.314-0.087,1.448-1.193,2.075-2.105c0.872-1.272,1.673-2.562,2.561-3.829  c1.197-1.713,1.559-3.638,2.686-5.393c0.403-0.627,0.75-1.963,1.371-2.459c0.47-0.377,1.363-0.18,1.932-0.18h1.353  c1.035,0,2.091-0.008,3.155,0.029c1.532,0.053,3.248-0.299,4.767-0.084c6.555,0.925-8.239,14.938-7.469,17.44  c0.532,1.728,3.907,3.659,5.125,5.074C73.701,61.345,78.679,65.092,74.808,67.517z" fill="#4C75A3"/></symbol>
<symbol id='instagram' viewBox='0 0 24 24'>
<defs><radialGradient cx="0" cy="0" gradientTransform="matrix(27.933,0,0,27.933,2,21.5)" gradientUnits="userSpaceOnUse" id="asd" r="1"><stop offset="0" style="stop-color:#ff8100;stop-opacity:1"/><stop offset="0.19" style="stop-color:#ff7209;stop-opacity:1"/><stop offset="0.32" style="stop-color:#f55e16;stop-opacity:1"/><stop offset="0.48" style="stop-color:#d92938;stop-opacity:1"/><stop offset="1" style="stop-color:#9100ff;stop-opacity:1"/></radialGradient></defs>
<rect height="24" id="Artboard10" style="fill:url(#asd);" width="24" x="0" y="0"/><path d="M22,7c0,-2.761 -2.239,-5 -5,-5c-3.054,0 -6.946,0 -10,0c-2.761,0 -5,2.239 -5,5c0,3.054 0,6.946 0,10c0,2.761 2.239,5 5,5c3.054,0 6.946,0 10,0c2.761,0 5,-2.239 5,-5c0,-3.054 0,-6.946 0,-10Z" style="fill:url(#asd);"/><path d="M14.958,5.005c2.091,0.02 4.016,1.815 4.037,4.037c0.007,1.972 0.007,3.944 0,5.916c-0.02,2.083 -1.815,4.016 -4.037,4.037c-1.972,0.007 -3.944,0.007 -5.916,0c-2.092,-0.02 -4.016,-1.815 -4.037,-4.037c-0.007,-1.972 -0.007,-3.944 0,-5.916c0.019,-2.093 1.81,-4.016 4.037,-4.037c1.972,-0.007 3.944,-0.007 5.916,0Zm-5.889,0.945c-1.623,0.005 -3.103,1.412 -3.119,3.098c-0.006,1.968 -0.006,3.936 0,5.904c0.015,1.605 1.388,3.082 3.098,3.098c1.968,0.006 3.936,0.006 5.904,0c1.609,-0.015 3.082,-1.388 3.098,-3.098c0.006,-1.968 0.006,-3.936 0,-5.904c-0.015,-1.616 -1.415,-3.082 -3.098,-3.098c-1.961,-0.006 -3.922,0 -5.883,0Z" style="fill:#fff;fill-rule:nonzero;"/><path d="M12.024,8.5c1.618,0.015 3.126,1.263 3.422,2.862c0.211,1.14 -0.187,2.376 -1.027,3.178c-0.935,0.89 -2.382,1.208 -3.622,0.754c-1.386,-0.507 -2.361,-1.968 -2.296,-3.448c0.079,-1.768 1.641,-3.34 3.499,-3.346c0.008,0 0.016,0 0.024,0Zm-0.04,0.947c-1.155,0.011 -2.244,0.887 -2.484,2.025c-0.243,1.151 0.419,2.428 1.506,2.887c1.187,0.502 2.72,-0.061 3.293,-1.233c0.593,-1.211 0.034,-2.856 -1.218,-3.441c-0.341,-0.159 -0.72,-0.239 -1.097,-0.238Z" style="fill:#fff;fill-rule:nonzero;"/><path d="M16.5,8.227c0,-0.193 -0.077,-0.378 -0.213,-0.514c-0.136,-0.136 -0.321,-0.213 -0.514,-0.213c-0.015,0 -0.031,0 -0.046,0c-0.193,0 -0.378,0.077 -0.514,0.213c-0.136,0.136 -0.213,0.321 -0.213,0.514c0,0.008 0,0.015 0,0.023c0,0.199 0.079,0.39 0.22,0.53c0.14,0.141 0.331,0.22 0.53,0.22c0,0 0,0 0,0c0.414,0 0.75,-0.336 0.75,-0.75c0,-0.008 0,-0.015 0,-0.023Z" style="fill:#fff;"/>
</symbol>
</svg>