
<svg display="none"  xmlns="http://www.w3.org/2000/svg">
    <symbol id="telegram_3_" height="32px" version="1.1" viewBox="0 0 32 32" width="32px" xml:space="preserve" >



<g id="telegram_3_"><circle cx="16" cy="16" fill="#FFFFFF" r="14.5"/><path d="M30.5,16c0-1.339-0.196-2.631-0.536-3.862C27.83,6.787,22.612,3,16.5,3C8.492,3,2,9.492,2,17.5   c0,1.339,0.196,2.631,0.536,3.862C4.67,26.713,9.888,30.5,16,30.5C24.008,30.5,30.5,24.008,30.5,16z" fill="#80D8FF"/><path d="M15.737,31C7.474,31,1,24.411,1,16c0-3.629,1.237-7.111,3.485-9.804c0.178-0.212,0.492-0.239,0.704-0.063   C5.401,6.31,5.43,6.625,5.253,6.837C3.155,9.35,2,12.604,2,16c0,7.851,6.034,14,13.737,14C23.602,30,30,23.72,30,16   S23.602,2,15.737,2c-2.44,0-4.813,0.62-6.858,1.792C8.642,3.925,8.334,3.846,8.197,3.606C8.06,3.366,8.143,3.061,8.383,2.923   C10.579,1.665,13.122,1,15.737,1C24.153,1,31,7.729,31,16S24.153,31,15.737,31z" fill="#455A64"/><g><g><g><g><g><g><path d="M7.543,4.552c0,0.275-0.225,0.5-0.5,0.5l0,0c-0.275,0-0.5-0.225-0.5-0.5l0,0         c0-0.275,0.225-0.5,0.5-0.5l0,0C7.318,4.052,7.543,4.276,7.543,4.552L7.543,4.552z" fill="#455A64"/></g></g></g></g></g></g><g><path d="M13.25,22.875c-0.486,0-0.403-0.184-0.571-0.646l-1.429-4.703l11-6.526L13.25,22.875z" fill="#ECEFF1"/><path d="M13.25,22.875c0.375,0,0.541-0.171,0.75-0.375l2-1.945l-2.495-1.504L13.25,22.875z" fill="#CFD8DC"/><path d="M13.505,19.051l6.045,4.466c0.69,0.38,1.188,0.183,1.359-0.641l2.461-11.595    c0.252-1.01-0.385-1.468-1.045-1.169L7.876,15.685c-0.986,0.396-0.979,0.946-0.18,1.191l3.708,1.157l8.584-5.416    c0.405-0.246,0.777-0.114,0.473,0.157L13.505,19.051z" fill="#FFFFFF"/><path d="M19.55,24.018c-0.111,0-0.224-0.037-0.316-0.113l-5.763-4.721c-0.113-0.092-0.18-0.229-0.184-0.375    c-0.003-0.146,0.057-0.285,0.165-0.383l4.277-3.86c0.205-0.187,0.521-0.169,0.706,0.036c0.186,0.205,0.169,0.521-0.036,0.706    l-3.846,3.47l5.313,4.353c0.214,0.175,0.245,0.49,0.07,0.704C19.838,23.955,19.694,24.018,19.55,24.018z" fill="#455A64"/><path d="M20.157,24.204L20.157,24.204c-0.265,0-0.55-0.083-0.849-0.248l-3.286-2.641l-1.684,1.553    c-0.234,0.229-0.52,0.507-1.089,0.507c-0.7,0-0.863-0.369-0.97-0.748c-0.019-0.065-0.04-0.141-0.071-0.228l-1.206-3.969    l-3.456-1.078c-0.814-0.25-0.923-0.749-0.932-0.951c-0.014-0.336,0.161-0.815,1.074-1.181l14.848-5.729    c0.425-0.166,0.924-0.032,1.212,0.323c0.203,0.249,0.281,0.573,0.215,0.889l-2.565,12.275    C21.168,24.084,20.453,24.204,20.157,24.204z M16,20.155c0.111,0,0.222,0.037,0.313,0.111l3.55,2.862    c0.459,0.219,0.5-0.085,0.557-0.354L22.985,10.5l-0.063-0.081L8.056,16.151c-0.175,0.07-0.29,0.139-0.36,0.19    c0.037,0.018,0.086,0.037,0.147,0.056l3.711,1.158c0.157,0.05,0.281,0.174,0.329,0.332l1.274,4.196    c0.033,0.088,0.061,0.188,0.085,0.272c0.002,0.006,0.004,0.013,0.005,0.019c0.133-0.001,0.203-0.037,0.388-0.218l2.026-1.87    C15.757,20.2,15.878,20.155,16,20.155z" fill="#455A64"/><g><g><g><g><g><g><g><path d="M20.043,13.552c0,0.275-0.225,0.5-0.5,0.5l0,0c-0.275,0-0.5-0.225-0.5-0.5l0,0         c0-0.275,0.225-0.5,0.5-0.5l0,0C19.818,13.052,20.043,13.276,20.043,13.552L20.043,13.552z" fill="#455A64"/></g></g></g></g></g></g></g> 

</symbol>
<symbol id="vk_x2C__Vkontakte" viewBox="0 0 32 32">

<g id="vk_x2C__Vkontakte"><path d="M11.86,2.5h8.279c7.561,0,9.36,1.8,9.36,9.36v8.28c0,7.56-1.8,9.36-9.36,9.36H11.86   c-7.561,0-9.36-1.8-9.36-9.36v-8.28C2.5,4.3,4.3,2.5,11.86,2.5z" fill="#FFFFFF"/><path d="M21.64,4H12.36C5.219,4,4,5.219,4,12.36v9.28c0,3.106,0.313,5.228,1.196,6.664   C6.632,29.187,8.754,29.5,11.86,29.5h8.279c7.561,0,9.36-1.8,9.36-9.36v-8.28c0-3.106-0.313-5.228-1.196-6.664   C26.868,4.313,24.746,4,21.64,4z" fill="#80D8FF"/><path d="M20.14,30H11.86C4.027,30,2,27.973,2,20.14v-8.28C2,4.027,4.027,2,11.86,2h8.279   C27.973,2,30,4.027,30,11.86v8.28C30,27.973,27.973,30,20.14,30z M11.86,3C4.573,3,3,4.573,3,11.86v8.28   C3,27.427,4.573,29,11.86,29h8.279c7.287,0,8.86-1.573,8.86-8.86v-8.28C29,4.573,27.427,3,20.14,3H11.86z" fill="#455A64"/><g><path d="M25.568,11.303c0.139-0.463,0-0.804-0.662-0.804h-2.188c-0.557,0-0.813,0.294-0.952,0.619    c0,0-1.113,2.712-2.689,4.474c-0.51,0.51-0.741,0.672-1.02,0.672c-0.139,0-0.341-0.163-0.341-0.626v-4.335    c0-0.556-0.161-0.804-0.625-0.804h-3.438c-0.348,0-0.557,0.258-0.557,0.503c0,0.527,0.788,0.649,0.87,2.133v3.222    c0,0.707-0.128,0.835-0.406,0.835c-0.741,0-2.546-2.725-3.616-5.842c-0.21-0.606-0.42-0.851-0.979-0.851H6.777    c-0.625,0-0.75,0.294-0.75,0.619c0,0.58,0.741,3.454,3.453,7.256c1.809,2.596,4.355,4.003,6.674,4.003    c1.391,0,1.563-0.313,1.563-0.851v-1.962c0-0.625,0.132-0.75,0.572-0.75c0.325,0,0.881,0.162,2.18,1.414    c1.483,1.483,1.728,2.149,2.563,2.149h2.188c0.625,0,0.938-0.313,0.758-0.93c-0.197-0.615-0.906-1.506-1.846-2.564    c-0.51-0.603-1.274-1.252-1.507-1.576c-0.324-0.417-0.231-0.603,0-0.974C22.624,16.333,25.29,12.578,25.568,11.303L25.568,11.303z    " fill="#FFFFFF"/><path d="M25.219,22.876h-2.188c-0.81,0-1.216-0.453-1.891-1.203c-0.266-0.295-0.592-0.658-1.025-1.092    c-1.194-1.151-1.7-1.267-1.886-1.267c-0.007,0.049-0.013,0.127-0.013,0.249v1.962c0,1.121-0.824,1.351-2.063,1.351    c-2.596,0-5.244-1.577-7.084-4.218c-2.65-3.715-3.543-6.735-3.543-7.542c0-0.711,0.456-1.119,1.25-1.119h2.188    c0.96,0,1.253,0.613,1.452,1.187c0.985,2.871,2.437,5.01,3.041,5.437c0.005-0.065,0.009-0.151,0.009-0.267v-3.222    c-0.041-0.729-0.283-1.029-0.497-1.293c-0.175-0.216-0.373-0.461-0.373-0.839c0-0.482,0.404-1.003,1.057-1.003h3.438    c0.514,0,1.125,0.226,1.125,1.304v4.335c0,0.02,0.001,0.038,0.002,0.055c0.113-0.078,0.274-0.225,0.505-0.455    c1.479-1.655,2.569-4.284,2.58-4.311c0.261-0.61,0.749-0.929,1.415-0.929h2.188c0.473,0,0.818,0.142,1.025,0.42    c0.138,0.185,0.27,0.514,0.116,1.028c-0.282,1.299-2.737,4.783-3.017,5.176c-0.021,0.035-0.106,0.173-0.117,0.22l0,0    c0.003,0,0.021,0.049,0.104,0.157c0.101,0.139,0.35,0.383,0.591,0.62c0.298,0.292,0.635,0.623,0.903,0.94    c1.18,1.327,1.743,2.122,1.94,2.734c0.164,0.566,0.019,0.922-0.133,1.123C26.163,22.626,25.845,22.876,25.219,22.876z     M18.289,18.313c0.452,0,1.106,0.185,2.526,1.554c0.456,0.456,0.794,0.831,1.069,1.137c0.654,0.729,0.813,0.872,1.146,0.872h2.188    c0.207,0,0.291-0.047,0.302-0.06l0,0c0,0,0.025-0.061-0.024-0.23c-0.184-0.572-1.026-1.569-1.739-2.372    c-0.257-0.304-0.57-0.61-0.848-0.881c-0.309-0.302-0.552-0.541-0.691-0.735c-0.498-0.641-0.303-1.072-0.018-1.53    c0.741-1.046,2.669-3.909,2.88-4.872c0.029-0.102,0.036-0.158,0.036-0.185c-0.018,0.002-0.085-0.013-0.21-0.013h-2.188    c-0.299,0-0.407,0.116-0.492,0.315c-0.044,0.107-1.162,2.806-2.776,4.611c-0.514,0.515-0.877,0.839-1.393,0.839    c-0.405,0-0.841-0.353-0.841-1.126v-4.335c0-0.192-0.023-0.273-0.034-0.301c-0.011,0.004-0.038-0.002-0.091-0.003h-3.438    c-0.049,0.038,0.037,0.144,0.094,0.214c0.263,0.325,0.659,0.816,0.719,1.894l0.001,3.25c0,0.399,0,1.335-0.906,1.335    c-1.283,0-3.199-3.589-4.089-6.179c-0.178-0.513-0.261-0.513-0.507-0.513H6.777c-0.196,0-0.253,0.038-0.254,0.038    c0.004,0.431,0.624,3.204,3.364,7.046c1.656,2.377,3.997,3.794,6.267,3.794c1.063,0,1.063-0.147,1.063-0.351v-1.962    C17.217,18.945,17.344,18.313,18.289,18.313z" fill="#455A64"/></g></g>


</symbol>

<symbol id="vk_x2C__Vkontakte" viewBox="0 0 48 48">

<g id="Icons"><g><linearGradient gradientUnits="userSpaceOnUse" id="SVGID_1_" x1="24" x2="24" y1="41.28282" y2="6.11993"><stop offset="0.09694" style="stop-color:#FFD879"/><stop offset="0.15387" style="stop-color:#FCCB76"/><stop offset="0.25828" style="stop-color:#F5AA6C"/><stop offset="0.39756" style="stop-color:#E9755E"/><stop offset="0.44898" style="stop-color:#E45F58"/><stop offset="0.67857" style="stop-color:#D22A9C"/><stop offset="1" style="stop-color:#6968DF"/></linearGradient><circle cx="24" cy="24" r="15.34377" style="fill:url(#SVGID_1_);"/><circle cx="24" cy="24" r="15.34377" style="fill:none;stroke:#303030;stroke-width:0.7;stroke-linecap:round;stroke-linejoin:round;stroke-miterlimit:10;"/><path d="    M21.6607,11.47916c0.53679-0.0955,1.07644-0.1576,1.61342-0.18429" style="fill:none;stroke:#303030;stroke-width:0.7;stroke-linecap:round;stroke-linejoin:round;stroke-miterlimit:10;"/><path d="    M15.23582,14.66794c1.44125-1.2413,3.22635-2.35482,5.10565-2.8855" style="fill:none;stroke:#303030;stroke-width:0.7;stroke-linecap:round;stroke-linejoin:round;stroke-miterlimit:10;"/><circle cx="24" cy="24" r="3.21549" style="fill:none;stroke:#FFFFFF;stroke-miterlimit:10;"/><circle cx="28.24781" cy="19.89086" r="0.46211" style="fill:#FFFFFF;"/><path d="M27.19764,30.76474h-6.39556    c-1.96662,0-3.56681-1.60019-3.56681-3.5671v-6.39527c0-1.96691,1.60019-3.5671,3.56681-3.5671h6.39556    c1.96691,0,3.5671,1.60019,3.5671,3.5671v6.39527C30.76474,29.16454,29.16454,30.76474,27.19764,30.76474z" style="fill:none;stroke:#FFFFFF;stroke-miterlimit:10;"/></g></g>
</symbol>
</svg>
